gait_27_test.mot
version=1
nRows=34
nColumns=19
inDegrees=yes
endheader
time	ground_force_vx	ground_force_vy	ground_force_vz	ground_force_px	ground_force_py	ground_force_pz	1_ground_force_vx	1_ground_force_vy	1_ground_force_vz	1_ground_force_px	1_ground_force_py	1_ground_force_pz	ground_torque_x	ground_torque_y	ground_torque_z	1_ground_torque_x	1_ground_torque_y	1_ground_torque_z
      2.24100000	      0.00000000	      0.00000000	      0.00000000	      0.00000000	      0.00000000	      0.00000000	     -5.46966261	    428.39916241	     -4.52063405	     -0.45539563	      0.00000000	     -0.12911869	      0.00000000	      0.00000000	      0.00000000	      0.00000000	      0.60056545	      0.00000000
      2.24200000	      0.00000000	      0.00000000	      0.00000000	      0.00000000	      0.00000000	      0.00000000	     -5.22555962	    429.31497364	     -4.50168984	     -0.45486083	      0.00000000	     -0.12906154	      0.00000000	      0.00000000	      0.00000000	      0.00000000	      0.61742056	      0.00000000
      2.24300000	      0.00000000	      0.00000000	      0.00000000	      0.00000000	      0.00000000	      0.00000000	     -4.97587567	    430.26225385	     -4.48587504	     -0.45433154	      0.00000000	     -0.12900604	      0.00000000	      0.00000000	      0.00000000	      0.00000000	      0.63377405	      0.00000000
      2.24400000	      0.00000000	      0.00000000	      0.00000000	      0.00000000	      0.00000000	      0.00000000	     -4.72057549	    431.24089379	     -4.47319145	     -0.45380781	      0.00000000	     -0.12895221	      0.00000000	      0.00000000	      0.00000000	      0.00000000	      0.64960665	      0.00000000
      2.24500000	      0.00000000	      0.00000000	      0.00000000	      0.00000000	      0.00000000	      0.00000000	     -4.45962553	    432.25077421	     -4.46363619	     -0.45328972	      0.00000000	     -0.12890009	      0.00000000	      0.00000000	      0.00000000	      0.00000000	      0.66489978	      0.00000000
      2.24600000	      0.00000000	      0.00000000	      0.00000000	      0.00000000	      0.00000000	      0.00000000	     -4.19299378	    433.29176553	     -4.45720150	     -0.45277733	      0.00000000	     -0.12884969	      0.00000000	      0.00000000	      0.00000000	      0.00000000	      0.67963562	      0.00000000
      2.24700000	      0.00000000	      0.00000000	      0.00000000	      0.00000000	      0.00000000	      0.00000000	     -3.92064953	    434.36372754	     -4.45387459	     -0.45227073	      0.00000000	     -0.12880106	      0.00000000	      0.00000000	      0.00000000	      0.00000000	      0.69379716	      0.00000000
      2.24800000	      0.00000000	      0.00000000	      0.00000000	      0.00000000	      0.00000000	      0.00000000	     -3.64256314	    435.46650902	     -4.45363743	     -0.45176996	      0.00000000	     -0.12875420	      0.00000000	      0.00000000	      0.00000000	      0.00000000	      0.70736823	      0.00000000
      2.24900000	      0.00000000	      0.00000000	      0.00000000	      0.00000000	      0.00000000	      0.00000000	     -3.35870584	    436.59994745	     -4.45646656	     -0.45127510	      0.00000000	     -0.12870916	      0.00000000	      0.00000000	      0.00000000	      0.00000000	      0.72033362	      0.00000000
      2.25000000	      0.00000000	      0.00000000	      0.00000000	      0.00000000	      0.00000000	      0.00000000	     -3.06904952	    437.76386868	     -4.46233288	     -0.45078622	      0.00000000	     -0.12866594	      0.00000000	      0.00000000	      0.00000000	      0.00000000	      0.73267914	      0.00000000
      2.25100000	      0.00000000	      0.00000000	      0.00000000	      0.00000000	      0.00000000	      0.00000000	     -2.77356655	    438.95808658	     -4.47120142	     -0.45030337	      0.00000000	     -0.12862457	      0.00000000	      0.00000000	      0.00000000	      0.00000000	      0.74439166	      0.00000000
      2.25200000	      0.00000000	      0.00000000	      0.00000000	      0.00000000	      0.00000000	      0.00000000	     -2.47222964	    440.18240271	     -4.48303112	     -0.44982661	      0.00000000	     -0.12858507	      0.00000000	      0.00000000	      0.00000000	      0.00000000	      0.75545928	      0.00000000
      2.25300000	      0.00000000	      0.00000000	      0.00000000	      0.00000000	      0.00000000	      0.00000000	     -2.16501166	    441.43660590	     -4.49777459	     -0.44935601	      0.00000000	     -0.12854747	      0.00000000	      0.00000000	      0.00000000	      0.00000000	      0.76587139	      0.00000000
      2.25400000	      0.00000000	      0.00000000	      0.00000000	      0.00000000	      0.00000000	      0.00000000	     -1.85188556	    442.72047191	     -4.51537791	     -0.44889161	      0.00000000	     -0.12851177	      0.00000000	      0.00000000	      0.00000000	      0.00000000	      0.77561878	      0.00000000
      2.25500000	      0.00000000	      0.00000000	      0.00000000	      0.00000000	      0.00000000	      0.00000000	     -1.53282426	    444.03376293	     -4.53578037	     -0.44843348	      0.00000000	     -0.12847801	      0.00000000	      0.00000000	      0.00000000	      0.00000000	      0.78469371	      0.00000000
      2.25600000	      0.00000000	      0.00000000	      0.00000000	      0.00000000	      0.00000000	      0.00000000	     -1.20780052	    445.37622725	     -4.55891427	     -0.44798166	      0.00000000	     -0.12844619	      0.00000000	      0.00000000	      0.00000000	      0.00000000	      0.79309006	      0.00000000
      2.25700000	      0.00000000	      0.00000000	      0.00000000	      0.00000000	      0.00000000	      0.00000000	     -0.87678685	    446.74759877	     -4.58470476	     -0.44753620	      0.00000000	     -0.12841632	      0.00000000	      0.00000000	      0.00000000	      0.00000000	      0.80080335	      0.00000000
      2.25800000	      0.00000000	      0.00000000	      0.00000000	      0.00000000	      0.00000000	      0.00000000	     -0.53975541	    448.14759667	     -4.61306962	     -0.44709715	      0.00000000	     -0.12838843	      0.00000000	      0.00000000	      0.00000000	      0.00000000	      0.80783087	      0.00000000
      2.25900000	      0.00000000	      0.00000000	      0.00000000	      0.00000000	      0.00000000	      0.00000000	     -0.19667791	    449.57592501	     -4.64391919	     -0.44666455	      0.00000000	     -0.12836252	      0.00000000	      0.00000000	      0.00000000	      0.00000000	      0.81417173	      0.00000000
      2.26000000	      0.00000000	      0.00000000	      0.00000000	      0.00000000	      0.00000000	      0.00000000	      0.15247448	    451.03227239	     -4.67715620	     -0.44623844	      0.00000000	     -0.12833859	      0.00000000	      0.00000000	      0.00000000	      0.00000000	      0.81982694	      0.00000000
      2.26100000	      0.00000000	      0.00000000	      0.00000000	      0.00000000	      0.00000000	      0.00000000	      0.50773121	    452.51631158	     -4.71267573	     -0.44581885	      0.00000000	     -0.12831667	      0.00000000	      0.00000000	      0.00000000	      0.00000000	      0.82479947	      0.00000000
      2.26200000	      0.00000000	      0.00000000	      0.00000000	      0.00000000	      0.00000000	      0.00000000	      0.86912245	    454.02769911	     -4.75036513	     -0.44540581	      0.00000000	     -0.12829674	      0.00000000	      0.00000000	      0.00000000	      0.00000000	      0.82909429	      0.00000000
      2.26300000	      0.00000000	      0.00000000	      0.00000000	      0.00000000	      0.00000000	      0.00000000	      1.23667924	    455.56607500	     -4.79010404	     -0.44499935	      0.00000000	     -0.12827882	      0.00000000	      0.00000000	      0.00000000	      0.00000000	      0.83271844	      0.00000000
      2.26400000	      0.00000000	      0.00000000	      0.00000000	      0.00000000	      0.00000000	      0.00000000	      1.61043355	    457.13106233	     -4.83176443	     -0.44459950	      0.00000000	     -0.12826290	      0.00000000	      0.00000000	      0.00000000	      0.00000000	      0.83568103	      0.00000000
      2.26500000	      0.00000000	      0.00000000	      0.00000000	      0.00000000	      0.00000000	      0.00000000	      1.99041843	    458.72226702	     -4.87521059	     -0.44420628	      0.00000000	     -0.12824899	      0.00000000	      0.00000000	      0.00000000	      0.00000000	      0.83799325	      0.00000000
      2.26600000	      0.00000000	      0.00000000	      0.00000000	      0.00000000	      0.00000000	      0.00000000	      2.37666813	    460.33927746	     -4.92029930	     -0.44381969	      0.00000000	     -0.12823707	      0.00000000	      0.00000000	      0.00000000	      0.00000000	      0.83966844	      0.00000000
      2.26700000	      0.00000000	      0.00000000	      0.00000000	      0.00000000	      0.00000000	      0.00000000	      2.76921821	    461.98166433	     -4.96687996	     -0.44343976	      0.00000000	     -0.12822716	      0.00000000	      0.00000000	      0.00000000	      0.00000000	      0.84072198	      0.00000000
      2.26800000	      0.00000000	      0.00000000	      0.00000000	      0.00000000	      0.00000000	      0.00000000	      3.16810564	    463.64898021	     -5.01479474	     -0.44306649	      0.00000000	     -0.12821923	      0.00000000	      0.00000000	      0.00000000	      0.00000000	      0.84117137	      0.00000000
      2.26900000	      0.00000000	      0.00000000	      0.00000000	      0.00000000	      0.00000000	      0.00000000	      3.57336893	    465.34075934	     -5.06387883	     -0.44269987	      0.00000000	     -0.12821328	      0.00000000	      0.00000000	      0.00000000	      0.00000000	      0.84103613	      0.00000000
      2.27000000	      0.00000000	      0.00000000	      0.00000000	      0.00000000	      0.00000000	      0.00000000	      3.98504819	    467.05651719	     -5.11396071	     -0.44233991	      0.00000000	     -0.12820930	      0.00000000	      0.00000000	      0.00000000	      0.00000000	      0.84033778	      0.00000000
      2.27100000	      0.00000000	      0.00000000	      0.00000000	      0.00000000	      0.00000000	      0.00000000	      4.40318523	    468.79575019	     -5.16486253	     -0.44198661	      0.00000000	     -0.12820728	      0.00000000	      0.00000000	      0.00000000	      0.00000000	      0.83909978	      0.00000000
      2.27200000	      0.00000000	      0.00000000	      0.00000000	      0.00000000	      0.00000000	      0.00000000	      4.82782360	    470.55793540	     -5.21640047	     -0.44163994	      0.00000000	     -0.12820719	      0.00000000	      0.00000000	      0.00000000	      0.00000000	      0.83734745	      0.00000000
      2.27300000	      0.00000000	      0.00000000	      0.00000000	      0.00000000	      0.00000000	      0.00000000	      5.25900857	    472.34253019	     -5.26838522	     -0.44129989	      0.00000000	     -0.12820903	      0.00000000	      0.00000000	      0.00000000	      0.00000000	      0.83510791	      0.00000000
      2.27400000	      0.00000000	      0.00000000	      0.00000000	      0.00000000	      0.00000000	      0.00000000	      5.69678712	    474.14897207	     -5.32062253	     -0.44096644	      0.00000000	     -0.12821277	      0.00000000	      0.00000000	      0.00000000	      0.00000000	      0.83240999	      0.00000000
